D:\school\WTK\thesis\model\3dpredictsim\Results\batch_windlass\Pog_s1_tmt_bCst_d05_k500_WL30_ig24_pas_GRF.mot
nRows=27
nColumns=19

name D:\school\WTK\thesis\model\3dpredictsim\Results\batch_windlass\Pog_s1_tmt_bCst_d05_k500_WL30_ig24_pas_GRF.mot
datacolumns 19
datarows 27
range 0.5394393664 0.8199478369
endheader
time 	ground_force_vx	ground_force_vy	ground_force_vz	ground_force_px	ground_force_py	ground_force_pz	1_ground_force_vx	1_ground_force_vy	1_ground_force_vz	1_ground_force_px	1_ground_force_py	1_ground_force_pz	ground_torque_x	ground_torque_y	ground_torque_z	1_ground_torque_x	1_ground_torque_y	1_ground_torque_z
        0.5394393664	       81.9500458316	      440.2623052157	        4.5219017722	        0.3476804962	        0.0000000000	        0.0349128779	      -94.2030173820	       75.3821053717	      -29.1026289916	        0.8138039527	        0.0000000000	       -0.0422734909	        0.0000000000	        0.0000000000	        0.0000000000	        0.0000000000	        0.0000000000	        0.0000000000	
        0.5502281537	       58.7277627143	      353.7044641336	       11.5279027547	        0.3531634791	        0.0000000000	        0.0328547305	     -138.4578672049	      151.6573049606	      -68.0790227041	        0.8236785107	        0.0000000000	       -0.0409387288	        0.0000000000	        0.0000000000	        0.0000000000	        0.0000000000	        0.0000000000	        0.0000000000	
        0.5610169410	       33.3807778191	      260.8030795198	       13.5479336677	        0.3617460445	        0.0000000000	        0.0289563906	      -58.1152210135	      327.1266652969	      -30.7721930863	        0.8367514483	        0.0000000000	       -0.0412851378	        0.0000000000	        0.0000000000	        0.0000000000	        0.0000000000	        0.0000000000	        0.0000000000	
        0.5718057283	       14.1521289716	      181.5402696436	       12.2551188347	        0.3739458724	        0.0000000000	        0.0224154298	      -62.0492744142	      558.0600087871	        1.4350448564	        0.8456107930	        0.0000000000	       -0.0431771621	        0.0000000000	        0.0000000000	        0.0000000000	        0.0000000000	        0.0000000000	        0.0000000000	
        0.5825945157	        1.7785835336	      148.8132680133	       12.0527177509	        0.3766841145	        0.0000000000	        0.0206128176	      -80.7684216085	      735.9003874520	       11.1297898088	        0.8512866745	        0.0000000000	       -0.0442831937	        0.0000000000	        0.0000000000	        0.0000000000	        0.0000000000	        0.0000000000	        0.0000000000	
        0.5933833030	       -2.4569232686	      113.0915401914	       11.6545634894	        0.3769668258	        0.0000000000	        0.0206497533	     -100.6700747359	      829.8506836616	       15.1414095730	        0.8574985281	        0.0000000000	       -0.0447910257	        0.0000000000	        0.0000000000	        0.0000000000	        0.0000000000	        0.0000000000	        0.0000000000	
        0.6041720903	      -11.6062321846	       72.1479366126	       10.0037446979	        0.3766927831	        0.0000000000	        0.0206740758	     -114.3767751588	      875.8210213044	       14.4325718444	        0.8640816507	        0.0000000000	       -0.0447582820	        0.0000000000	        0.0000000000	        0.0000000000	        0.0000000000	        0.0000000000	        0.0000000000	
        0.6149608777	      -11.7110992240	       25.8353149865	        4.0852504631	        0.3762793122	        0.0000000000	        0.0203914503	     -111.5697753881	      879.2861013250	       14.3703049554	        0.8706936821	        0.0000000000	       -0.0443819864	        0.0000000000	        0.0000000000	        0.0000000000	        0.0000000000	        0.0000000000	        0.0000000000	
        0.6257496650	        0.2245865045	       -0.2173378751	        0.0008167204	        0.0000000000	        0.0000000000	        0.0000000000	      -99.0554179653	      846.9399377573	       14.0745445256	        0.8750093444	        0.0000000000	       -0.0439901845	        0.0000000000	        0.0000000000	        0.0000000000	        0.0000000000	        0.0000000000	        0.0000000000	
        0.6365384523	        0.0015126860	       -0.0012068562	        0.0000847245	        0.0000000000	        0.0000000000	        0.0000000000	      -84.4217741882	      799.9753699304	       14.9408563281	        0.8784825296	        0.0000000000	       -0.0437127839	        0.0000000000	        0.0000000000	        0.0000000000	        0.0000000000	        0.0000000000	        0.0000000000	
        0.6473272396	        0.0007869132	       -0.0005475704	        0.0000545494	        0.0000000000	        0.0000000000	        0.0000000000	      -71.1572078653	      753.0153172543	       15.3291005890	        0.8816572371	        0.0000000000	       -0.0435539170	        0.0000000000	        0.0000000000	        0.0000000000	        0.0000000000	        0.0000000000	        0.0000000000	
        0.6581160270	        0.0032945489	       -0.0020682695	        0.0002486767	        0.0000000000	        0.0000000000	        0.0000000000	      -59.5637223632	      712.2524592765	       15.9760827237	        0.8848625046	        0.0000000000	       -0.0434835613	        0.0000000000	        0.0000000000	        0.0000000000	        0.0000000000	        0.0000000000	        0.0000000000	
        0.6689048143	        0.0150470610	       -0.0087145481	        0.0011973919	        0.0000000000	        0.0000000000	        0.0000000000	      -49.6277176516	      678.1040676335	       16.7971185192	        0.8882587906	        0.0000000000	       -0.0434780505	        0.0000000000	        0.0000000000	        0.0000000000	        0.0000000000	        0.0000000000	        0.0000000000	
        0.6796936016	       -0.0738233498	        0.0400797721	       -0.0060862342	        0.0000000000	        0.0000000000	        0.0000000000	      -40.7658661479	      650.3029688121	       17.7608167655	        0.8922687361	        0.0000000000	       -0.0435144689	        0.0000000000	        0.0000000000	        0.0000000000	        0.0000000000	        0.0000000000	        0.0000000000	
        0.6904823889	       -0.0516652405	        0.0265588830	       -0.0043905697	        0.0000000000	        0.0000000000	        0.0000000000	      -33.7817867789	      628.5260788857	       18.7000425339	        0.8970148112	        0.0000000000	       -0.0435519402	        0.0000000000	        0.0000000000	        0.0000000000	        0.0000000000	        0.0000000000	        0.0000000000	
        0.7012711763	       -0.0325006791	        0.0159266229	       -0.0028346041	        0.0000000000	        0.0000000000	        0.0000000000	      -28.7455189829	      612.2550560110	       19.4212857417	        0.9022194280	        0.0000000000	       -0.0435625273	        0.0000000000	        0.0000000000	        0.0000000000	        0.0000000000	        0.0000000000	        0.0000000000	
        0.7120599636	       -0.0242925322	        0.0114130824	       -0.0021591421	        0.0000000000	        0.0000000000	        0.0000000000	      -24.7858599453	      600.5267006833	       19.8038688689	        0.9076946052	        0.0000000000	       -0.0435386277	        0.0000000000	        0.0000000000	        0.0000000000	        0.0000000000	        0.0000000000	        0.0000000000	
        0.7228487509	       -0.0230917717	        0.0104505807	       -0.0020706967	        0.0000000000	        0.0000000000	        0.0000000000	      -21.5565689427	      592.2621621706	       19.8860979556	        0.9133584145	        0.0000000000	       -0.0434769528	        0.0000000000	        0.0000000000	        0.0000000000	        0.0000000000	        0.0000000000	        0.0000000000	
        0.7336375383	       -0.0278344278	        0.0121811913	       -0.0024943599	        0.0000000000	        0.0000000000	        0.0000000000	      -19.2061727700	      586.5487489398	       19.5993830633	        0.9190567181	        0.0000000000	       -0.0433802063	        0.0000000000	        0.0000000000	        0.0000000000	        0.0000000000	        0.0000000000	        0.0000000000	
        0.7444263256	       -0.0407817200	        0.0173185877	       -0.0036227421	        0.0000000000	        0.0000000000	        0.0000000000	      -17.7739487686	      583.3226405092	       19.1606187683	        0.9247476641	        0.0000000000	       -0.0432515609	        0.0000000000	        0.0000000000	        0.0000000000	        0.0000000000	        0.0000000000	        0.0000000000	
        0.7552151129	       -0.0682379594	        0.0282203874	       -0.0059765898	        0.0000000000	        0.0000000000	        0.0000000000	      -16.5555002543	      581.4823617547	       18.7186001100	        0.9303292668	        0.0000000000	       -0.0430963444	        0.0000000000	        0.0000000000	        0.0000000000	        0.0000000000	        0.0000000000	        0.0000000000	
        0.7660039002	       -0.1217612331	        0.0492157337	       -0.0104934288	        0.0000000000	        0.0000000000	        0.0000000000	      -15.0560495821	      579.4814486159	       18.5416371347	        0.9357217970	        0.0000000000	       -0.0429223520	        0.0000000000	        0.0000000000	        0.0000000000	        0.0000000000	        0.0000000000	        0.0000000000	
        0.7767926876	       -0.2176416256	        0.0862798590	       -0.0184514072	        0.0000000000	        0.0000000000	        0.0000000000	      -13.1200667572	      576.7415857160	       18.5384162427	        0.9409556948	        0.0000000000	       -0.0427354667	        0.0000000000	        0.0000000000	        0.0000000000	        0.0000000000	        0.0000000000	        0.0000000000	
        0.7875814749	       -0.3708541499	        0.1446788730	       -0.0309547498	        0.0000000000	        0.0000000000	        0.0000000000	      -10.9866805647	      572.9946329370	       18.4749576743	        0.9460553195	        0.0000000000	       -0.0425381176	        0.0000000000	        0.0000000000	        0.0000000000	        0.0000000000	        0.0000000000	        0.0000000000	
        0.7983702622	       -0.5797069413	        0.2233047655	       -0.0476041739	        0.0000000000	        0.0000000000	        0.0000000000	       -8.6589610826	      568.2819733449	       18.4328476038	        0.9510501440	        0.0000000000	       -0.0423283177	        0.0000000000	        0.0000000000	        0.0000000000	        0.0000000000	        0.0000000000	        0.0000000000	
        0.8091590495	       -0.8183087993	        0.3121823973	       -0.0658634518	        0.0000000000	        0.0000000000	        0.0000000000	       -6.0585263059	      562.8657816885	       18.1332460014	        0.9559973935	        0.0000000000	       -0.0421043833	        0.0000000000	        0.0000000000	        0.0000000000	        0.0000000000	        0.0000000000	        0.0000000000	
        0.8199478369	       -1.0464202814	        0.3963192657	       -0.0819126191	        0.0000000000	        0.0000000000	        0.0000000000	       -3.1626688881	      556.9602075568	       17.3410451948	        0.9609213817	        0.0000000000	       -0.0418645512	        0.0000000000	        0.0000000000	        0.0000000000	        0.0000000000	        0.0000000000	        0.0000000000	
